<?xml version="1.0" encoding="utf-8" standalone="no"?>
<!DOCTYPE svg PUBLIC "-//W3C//DTD SVG 1.1//EN"
  "http://www.w3.org/Graphics/SVG/1.1/DTD/svg11.dtd">
<!-- Created with matplotlib (https://matplotlib.org/) -->
<svg height="345.6pt" version="1.1" viewBox="0 0 460.8 345.6" width="460.8pt" xmlns="http://www.w3.org/2000/svg" xmlns:xlink="http://www.w3.org/1999/xlink">
 <metadata>
  <rdf:RDF xmlns:cc="http://creativecommons.org/ns#" xmlns:dc="http://purl.org/dc/elements/1.1/" xmlns:rdf="http://www.w3.org/1999/02/22-rdf-syntax-ns#">
   <cc:Work>
    <dc:type rdf:resource="http://purl.org/dc/dcmitype/StillImage"/>
    <dc:date>2022-12-14T17:25:03.958295</dc:date>
    <dc:format>image/svg+xml</dc:format>
    <dc:creator>
     <cc:Agent>
      <dc:title>Matplotlib v3.3.2, https://matplotlib.org/</dc:title>
     </cc:Agent>
    </dc:creator>
   </cc:Work>
  </rdf:RDF>
 </metadata>
 <defs>
  <style type="text/css">*{stroke-linecap:butt;stroke-linejoin:round;}</style>
 </defs>
 <g id="figure_1">
  <g id="patch_1">
   <path d="M 0 345.6 
L 460.8 345.6 
L 460.8 0 
L 0 0 
z
" style="fill:none;"/>
  </g>
  <g id="axes_1">
   <g id="PolyCollection_1">
    <path clip-path="url(#peb52cc914b)" d="M 236.16 41.472 
L 236.16 41.472 
L 231.938408 41.538988 
L 227.721067 41.739885 
L 223.512223 42.074488 
L 219.316114 42.54246 
L 215.136966 43.143331 
L 210.978986 43.876495 
L 206.846362 44.741214 
L 202.743253 45.736618 
L 198.673793 46.861703 
L 194.642078 48.115337 
L 190.652168 49.496259 
L 186.70808 51.003076 
L 182.813787 52.634273 
L 178.973208 54.388207 
L 175.190212 56.263111 
L 171.468607 58.257097 
L 167.812141 60.368159 
L 164.224495 62.59417 
L 160.709283 64.932889 
L 157.270043 67.381961 
L 153.910238 69.938919 
L 150.633252 72.601191 
L 147.442384 75.366093 
L 144.340847 78.230844 
L 141.331764 81.192557 
L 138.418166 84.248252 
L 135.602985 87.39485 
L 132.889056 90.629184 
L 130.279113 93.947997 
L 127.775782 97.347948 
L 125.381585 100.825612 
L 123.098933 104.377488 
L 120.930124 108 
L 118.877341 111.6895 
L 116.942652 115.442273 
L 115.128005 119.25454 
L 113.435227 123.122463 
L 111.866022 127.042147 
L 110.421971 131.009645 
L 109.104527 135.020963 
L 107.915018 139.07206 
L 106.85464 143.158859 
L 105.924462 147.277244 
L 105.12542 151.423068 
L 104.458318 155.592157 
L 103.923829 159.780312 
L 103.522491 163.983318 
L 103.254707 168.196941 
L 103.120748 172.416938 
L 103.120748 176.639062 
L 103.254707 180.859059 
L 103.522491 185.072682 
L 103.923829 189.275688 
L 104.458318 193.463843 
L 105.12542 197.632932 
L 105.924462 201.778756 
L 106.85464 205.897141 
L 107.915018 209.98394 
L 109.104527 214.035037 
L 110.421971 218.046355 
L 111.866022 222.013853 
L 113.435227 225.933537 
L 115.128005 229.80146 
L 116.942652 233.613727 
L 118.877341 237.3665 
L 120.930124 241.056 
L 123.098933 244.678512 
L 125.381585 248.230388 
L 127.775782 251.708052 
L 130.279113 255.108003 
L 132.889056 258.426816 
L 135.602985 261.66115 
L 138.418166 264.807748 
L 141.331764 267.863443 
L 144.340847 270.825156 
L 147.442384 273.689907 
L 150.633252 276.454809 
L 153.910238 279.117081 
L 157.270043 281.674039 
L 160.709283 284.123111 
L 164.224495 286.46183 
L 167.812141 288.687841 
L 171.468607 290.798903 
L 175.190212 292.792889 
L 178.973208 294.667793 
L 182.813787 296.421727 
L 186.70808 298.052924 
L 190.652168 299.559741 
L 194.642078 300.940663 
L 198.673793 302.194297 
L 202.743253 303.319382 
L 206.846362 304.314786 
L 210.978986 305.179505 
L 215.136966 305.912669 
L 219.316114 306.51354 
L 223.512223 306.981512 
L 227.721067 307.316115 
L 231.938408 307.517012 
L 236.16 307.584 
L 236.16 307.584 
L 236.16 307.584 
L 236.16 307.517012 
L 236.16 307.316115 
L 236.16 306.981512 
L 236.16 306.51354 
L 236.16 305.912669 
L 236.16 305.179505 
L 236.16 304.314786 
L 236.16 303.319382 
L 236.16 302.194297 
L 236.16 300.940663 
L 236.16 299.559741 
L 236.16 298.052924 
L 236.16 296.421727 
L 236.16 294.667793 
L 236.16 292.792889 
L 236.16 290.798903 
L 236.16 288.687841 
L 236.16 286.46183 
L 236.16 284.123111 
L 236.16 281.674039 
L 236.16 279.117081 
L 236.16 276.454809 
L 236.16 273.689907 
L 236.16 270.825156 
L 236.16 267.863443 
L 236.16 264.807748 
L 236.16 261.66115 
L 236.16 258.426816 
L 236.16 255.108003 
L 236.16 251.708052 
L 236.16 248.230388 
L 236.16 244.678512 
L 236.16 241.056 
L 236.16 237.3665 
L 236.16 233.613727 
L 236.16 229.80146 
L 236.16 225.933537 
L 236.16 222.013853 
L 236.16 218.046355 
L 236.16 214.035037 
L 236.16 209.98394 
L 236.16 205.897141 
L 236.16 201.778756 
L 236.16 197.632932 
L 236.16 193.463843 
L 236.16 189.275688 
L 236.16 185.072682 
L 236.16 180.859059 
L 236.16 176.639062 
L 236.16 172.416938 
L 236.16 168.196941 
L 236.16 163.983318 
L 236.16 159.780312 
L 236.16 155.592157 
L 236.16 151.423068 
L 236.16 147.277244 
L 236.16 143.158859 
L 236.16 139.07206 
L 236.16 135.020963 
L 236.16 131.009645 
L 236.16 127.042147 
L 236.16 123.122463 
L 236.16 119.25454 
L 236.16 115.442273 
L 236.16 111.6895 
L 236.16 108 
L 236.16 104.377488 
L 236.16 100.825612 
L 236.16 97.347948 
L 236.16 93.947997 
L 236.16 90.629184 
L 236.16 87.39485 
L 236.16 84.248252 
L 236.16 81.192557 
L 236.16 78.230844 
L 236.16 75.366093 
L 236.16 72.601191 
L 236.16 69.938919 
L 236.16 67.381961 
L 236.16 64.932889 
L 236.16 62.59417 
L 236.16 60.368159 
L 236.16 58.257097 
L 236.16 56.263111 
L 236.16 54.388207 
L 236.16 52.634273 
L 236.16 51.003076 
L 236.16 49.496259 
L 236.16 48.115337 
L 236.16 46.861703 
L 236.16 45.736618 
L 236.16 44.741214 
L 236.16 43.876495 
L 236.16 43.143331 
L 236.16 42.54246 
L 236.16 42.074488 
L 236.16 41.739885 
L 236.16 41.538988 
L 236.16 41.472 
z
" style="fill:#1a1a1a;"/>
   </g>
   <g id="PolyCollection_2">
    <path clip-path="url(#peb52cc914b)" d="M 236.16 41.472 
L 236.16 41.472 
L 236.16 41.538988 
L 236.16 41.739885 
L 236.16 42.074488 
L 236.16 42.54246 
L 236.16 43.143331 
L 236.16 43.876495 
L 236.16 44.741214 
L 236.16 45.736618 
L 236.16 46.861703 
L 236.16 48.115337 
L 236.16 49.496259 
L 236.16 51.003076 
L 236.16 52.634273 
L 236.16 54.388207 
L 236.16 56.263111 
L 236.16 58.257097 
L 236.16 60.368159 
L 236.16 62.59417 
L 236.16 64.932889 
L 236.16 67.381961 
L 236.16 69.938919 
L 236.16 72.601191 
L 236.16 75.366093 
L 236.16 78.230844 
L 236.16 81.192557 
L 236.16 84.248252 
L 236.16 87.39485 
L 236.16 90.629184 
L 236.16 93.947997 
L 236.16 97.347948 
L 236.16 100.825612 
L 236.16 104.377488 
L 236.16 108 
L 236.16 111.6895 
L 236.16 115.442273 
L 236.16 119.25454 
L 236.16 123.122463 
L 236.16 127.042147 
L 236.16 131.009645 
L 236.16 135.020963 
L 236.16 139.07206 
L 236.16 143.158859 
L 236.16 147.277244 
L 236.16 151.423068 
L 236.16 155.592157 
L 236.16 159.780312 
L 236.16 163.983318 
L 236.16 168.196941 
L 236.16 172.416938 
L 236.16 176.639062 
L 236.16 180.859059 
L 236.16 185.072682 
L 236.16 189.275688 
L 236.16 193.463843 
L 236.16 197.632932 
L 236.16 201.778756 
L 236.16 205.897141 
L 236.16 209.98394 
L 236.16 214.035037 
L 236.16 218.046355 
L 236.16 222.013853 
L 236.16 225.933537 
L 236.16 229.80146 
L 236.16 233.613727 
L 236.16 237.3665 
L 236.16 241.056 
L 236.16 244.678512 
L 236.16 248.230388 
L 236.16 251.708052 
L 236.16 255.108003 
L 236.16 258.426816 
L 236.16 261.66115 
L 236.16 264.807748 
L 236.16 267.863443 
L 236.16 270.825156 
L 236.16 273.689907 
L 236.16 276.454809 
L 236.16 279.117081 
L 236.16 281.674039 
L 236.16 284.123111 
L 236.16 286.46183 
L 236.16 288.687841 
L 236.16 290.798903 
L 236.16 292.792889 
L 236.16 294.667793 
L 236.16 296.421727 
L 236.16 298.052924 
L 236.16 299.559741 
L 236.16 300.940663 
L 236.16 302.194297 
L 236.16 303.319382 
L 236.16 304.314786 
L 236.16 305.179505 
L 236.16 305.912669 
L 236.16 306.51354 
L 236.16 306.981512 
L 236.16 307.316115 
L 236.16 307.517012 
L 236.16 307.584 
L 236.16 307.584 
L 236.16 307.584 
L 240.381592 307.517012 
L 244.598933 307.316115 
L 248.807777 306.981512 
L 253.003886 306.51354 
L 257.183034 305.912669 
L 261.341014 305.179505 
L 265.473638 304.314786 
L 269.576747 303.319382 
L 273.646207 302.194297 
L 277.677922 300.940663 
L 281.667832 299.559741 
L 285.61192 298.052924 
L 289.506213 296.421727 
L 293.346792 294.667793 
L 297.129788 292.792889 
L 300.851393 290.798903 
L 304.507859 288.687841 
L 308.095505 286.46183 
L 311.610717 284.123111 
L 315.049957 281.674039 
L 318.409762 279.117081 
L 321.686748 276.454809 
L 324.877616 273.689907 
L 327.979153 270.825156 
L 330.988236 267.863443 
L 333.901834 264.807748 
L 336.717015 261.66115 
L 339.430944 258.426816 
L 342.040887 255.108003 
L 344.544218 251.708052 
L 346.938415 248.230388 
L 349.221067 244.678512 
L 351.389876 241.056 
L 353.442659 237.3665 
L 355.377348 233.613727 
L 357.191995 229.80146 
L 358.884773 225.933537 
L 360.453978 222.013853 
L 361.898029 218.046355 
L 363.215473 214.035037 
L 364.404982 209.98394 
L 365.46536 205.897141 
L 366.395538 201.778756 
L 367.19458 197.632932 
L 367.861682 193.463843 
L 368.396171 189.275688 
L 368.797509 185.072682 
L 369.065293 180.859059 
L 369.199252 176.639062 
L 369.199252 172.416938 
L 369.065293 168.196941 
L 368.797509 163.983318 
L 368.396171 159.780312 
L 367.861682 155.592157 
L 367.19458 151.423068 
L 366.395538 147.277244 
L 365.46536 143.158859 
L 364.404982 139.07206 
L 363.215473 135.020963 
L 361.898029 131.009645 
L 360.453978 127.042147 
L 358.884773 123.122463 
L 357.191995 119.25454 
L 355.377348 115.442273 
L 353.442659 111.6895 
L 351.389876 108 
L 349.221067 104.377488 
L 346.938415 100.825612 
L 344.544218 97.347948 
L 342.040887 93.947997 
L 339.430944 90.629184 
L 336.717015 87.39485 
L 333.901834 84.248252 
L 330.988236 81.192557 
L 327.979153 78.230844 
L 324.877616 75.366093 
L 321.686748 72.601191 
L 318.409762 69.938919 
L 315.049957 67.381961 
L 311.610717 64.932889 
L 308.095505 62.59417 
L 304.507859 60.368159 
L 300.851393 58.257097 
L 297.129788 56.263111 
L 293.346792 54.388207 
L 289.506213 52.634273 
L 285.61192 51.003076 
L 281.667832 49.496259 
L 277.677922 48.115337 
L 273.646207 46.861703 
L 269.576747 45.736618 
L 265.473638 44.741214 
L 261.341014 43.876495 
L 257.183034 43.143331 
L 253.003886 42.54246 
L 248.807777 42.074488 
L 244.598933 41.739885 
L 240.381592 41.538988 
L 236.16 41.472 
z
" style="fill:#e6e6e6;"/>
   </g>
   <g id="line2d_1">
    <path clip-path="url(#peb52cc914b)" d="M 236.16 41.472 
L 240.381592 41.538988 
L 244.598933 41.739885 
L 248.807777 42.074488 
L 253.003886 42.54246 
L 257.183034 43.143331 
L 261.341014 43.876495 
L 265.473638 44.741214 
L 269.576747 45.736618 
L 273.646207 46.861703 
L 277.677922 48.115337 
L 281.667832 49.496259 
L 285.61192 51.003076 
L 289.506213 52.634273 
L 293.346792 54.388207 
L 297.129788 56.263111 
L 300.851393 58.257097 
L 304.507859 60.368159 
L 308.095505 62.59417 
L 311.610717 64.932889 
L 315.049957 67.381961 
L 318.409762 69.938919 
L 321.686748 72.601191 
L 324.877616 75.366093 
L 327.979153 78.230844 
L 330.988236 81.192557 
L 333.901834 84.248252 
L 336.717015 87.39485 
L 339.430944 90.629184 
L 342.040887 93.947997 
L 344.544218 97.347948 
L 346.938415 100.825612 
L 349.221067 104.377488 
L 351.389876 108 
L 353.442659 111.6895 
L 355.377348 115.442273 
L 357.191995 119.25454 
L 358.884773 123.122463 
L 360.453978 127.042147 
L 361.898029 131.009645 
L 363.215473 135.020963 
L 364.404982 139.07206 
L 365.46536 143.158859 
L 366.395538 147.277244 
L 367.19458 151.423068 
L 367.861682 155.592157 
L 368.396171 159.780312 
L 368.797509 163.983318 
L 369.065293 168.196941 
L 369.199252 172.416938 
L 369.199252 176.639062 
L 369.065293 180.859059 
L 368.797509 185.072682 
L 368.396171 189.275688 
L 367.861682 193.463843 
L 367.19458 197.632932 
L 366.395538 201.778756 
L 365.46536 205.897141 
L 364.404982 209.98394 
L 363.215473 214.035037 
L 361.898029 218.046355 
L 360.453978 222.013853 
L 358.884773 225.933537 
L 357.191995 229.80146 
L 355.377348 233.613727 
L 353.442659 237.3665 
L 351.389876 241.056 
L 349.221067 244.678512 
L 346.938415 248.230388 
L 344.544218 251.708052 
L 342.040887 255.108003 
L 339.430944 258.426816 
L 336.717015 261.66115 
L 333.901834 264.807748 
L 330.988236 267.863443 
L 327.979153 270.825156 
L 324.877616 273.689907 
L 321.686748 276.454809 
L 318.409762 279.117081 
L 315.049957 281.674039 
L 311.610717 284.123111 
L 308.095505 286.46183 
L 304.507859 288.687841 
L 300.851393 290.798903 
L 297.129788 292.792889 
L 293.346792 294.667793 
L 289.506213 296.421727 
L 285.61192 298.052924 
L 281.667832 299.559741 
L 277.677922 300.940663 
L 273.646207 302.194297 
L 269.576747 303.319382 
L 265.473638 304.314786 
L 261.341014 305.179505 
L 257.183034 305.912669 
L 253.003886 306.51354 
L 248.807777 306.981512 
L 244.598933 307.316115 
L 240.381592 307.517012 
L 236.16 307.584 
" style="fill:none;stroke:#000000;stroke-linecap:square;stroke-width:1.5;"/>
   </g>
   <g id="line2d_2">
    <path clip-path="url(#peb52cc914b)" d="M 236.16 41.472 
L 231.938408 41.538988 
L 227.721067 41.739885 
L 223.512223 42.074488 
L 219.316114 42.54246 
L 215.136966 43.143331 
L 210.978986 43.876495 
L 206.846362 44.741214 
L 202.743253 45.736618 
L 198.673793 46.861703 
L 194.642078 48.115337 
L 190.652168 49.496259 
L 186.70808 51.003076 
L 182.813787 52.634273 
L 178.973208 54.388207 
L 175.190212 56.263111 
L 171.468607 58.257097 
L 167.812141 60.368159 
L 164.224495 62.59417 
L 160.709283 64.932889 
L 157.270043 67.381961 
L 153.910238 69.938919 
L 150.633252 72.601191 
L 147.442384 75.366093 
L 144.340847 78.230844 
L 141.331764 81.192557 
L 138.418166 84.248252 
L 135.602985 87.39485 
L 132.889056 90.629184 
L 130.279113 93.947997 
L 127.775782 97.347948 
L 125.381585 100.825612 
L 123.098933 104.377488 
L 120.930124 108 
L 118.877341 111.6895 
L 116.942652 115.442273 
L 115.128005 119.25454 
L 113.435227 123.122463 
L 111.866022 127.042147 
L 110.421971 131.009645 
L 109.104527 135.020963 
L 107.915018 139.07206 
L 106.85464 143.158859 
L 105.924462 147.277244 
L 105.12542 151.423068 
L 104.458318 155.592157 
L 103.923829 159.780312 
L 103.522491 163.983318 
L 103.254707 168.196941 
L 103.120748 172.416938 
L 103.120748 176.639062 
L 103.254707 180.859059 
L 103.522491 185.072682 
L 103.923829 189.275688 
L 104.458318 193.463843 
L 105.12542 197.632932 
L 105.924462 201.778756 
L 106.85464 205.897141 
L 107.915018 209.98394 
L 109.104527 214.035037 
L 110.421971 218.046355 
L 111.866022 222.013853 
L 113.435227 225.933537 
L 115.128005 229.80146 
L 116.942652 233.613727 
L 118.877341 237.3665 
L 120.930124 241.056 
L 123.098933 244.678512 
L 125.381585 248.230388 
L 127.775782 251.708052 
L 130.279113 255.108003 
L 132.889056 258.426816 
L 135.602985 261.66115 
L 138.418166 264.807748 
L 141.331764 267.863443 
L 144.340847 270.825156 
L 147.442384 273.689907 
L 150.633252 276.454809 
L 153.910238 279.117081 
L 157.270043 281.674039 
L 160.709283 284.123111 
L 164.224495 286.46183 
L 167.812141 288.687841 
L 171.468607 290.798903 
L 175.190212 292.792889 
L 178.973208 294.667793 
L 182.813787 296.421727 
L 186.70808 298.052924 
L 190.652168 299.559741 
L 194.642078 300.940663 
L 198.673793 302.194297 
L 202.743253 303.319382 
L 206.846362 304.314786 
L 210.978986 305.179505 
L 215.136966 305.912669 
L 219.316114 306.51354 
L 223.512223 306.981512 
L 227.721067 307.316115 
L 231.938408 307.517012 
L 236.16 307.584 
" style="fill:none;stroke:#000000;stroke-linecap:square;stroke-width:1.5;"/>
   </g>
   <g id="line2d_3">
    <path clip-path="url(#peb52cc914b)" d="M 236.16 41.472 
L 236.16 41.538988 
L 236.16 41.739885 
L 236.16 42.074488 
L 236.16 42.54246 
L 236.16 43.143331 
L 236.16 43.876495 
L 236.16 44.741214 
L 236.16 45.736618 
L 236.16 46.861703 
L 236.16 48.115337 
L 236.16 49.496259 
L 236.16 51.003076 
L 236.16 52.634273 
L 236.16 54.388207 
L 236.16 56.263111 
L 236.16 58.257097 
L 236.16 60.368159 
L 236.16 62.59417 
L 236.16 64.932889 
L 236.16 67.381961 
L 236.16 69.938919 
L 236.16 72.601191 
L 236.16 75.366093 
L 236.16 78.230844 
L 236.16 81.192557 
L 236.16 84.248252 
L 236.16 87.39485 
L 236.16 90.629184 
L 236.16 93.947997 
L 236.16 97.347948 
L 236.16 100.825612 
L 236.16 104.377488 
L 236.16 108 
L 236.16 111.6895 
L 236.16 115.442273 
L 236.16 119.25454 
L 236.16 123.122463 
L 236.16 127.042147 
L 236.16 131.009645 
L 236.16 135.020963 
L 236.16 139.07206 
L 236.16 143.158859 
L 236.16 147.277244 
L 236.16 151.423068 
L 236.16 155.592157 
L 236.16 159.780312 
L 236.16 163.983318 
L 236.16 168.196941 
L 236.16 172.416938 
L 236.16 176.639062 
L 236.16 180.859059 
L 236.16 185.072682 
L 236.16 189.275688 
L 236.16 193.463843 
L 236.16 197.632932 
L 236.16 201.778756 
L 236.16 205.897141 
L 236.16 209.98394 
L 236.16 214.035037 
L 236.16 218.046355 
L 236.16 222.013853 
L 236.16 225.933537 
L 236.16 229.80146 
L 236.16 233.613727 
L 236.16 237.3665 
L 236.16 241.056 
L 236.16 244.678512 
L 236.16 248.230388 
L 236.16 251.708052 
L 236.16 255.108003 
L 236.16 258.426816 
L 236.16 261.66115 
L 236.16 264.807748 
L 236.16 267.863443 
L 236.16 270.825156 
L 236.16 273.689907 
L 236.16 276.454809 
L 236.16 279.117081 
L 236.16 281.674039 
L 236.16 284.123111 
L 236.16 286.46183 
L 236.16 288.687841 
L 236.16 290.798903 
L 236.16 292.792889 
L 236.16 294.667793 
L 236.16 296.421727 
L 236.16 298.052924 
L 236.16 299.559741 
L 236.16 300.940663 
L 236.16 302.194297 
L 236.16 303.319382 
L 236.16 304.314786 
L 236.16 305.179505 
L 236.16 305.912669 
L 236.16 306.51354 
L 236.16 306.981512 
L 236.16 307.316115 
L 236.16 307.517012 
L 236.16 307.584 
" style="fill:none;stroke:#333333;stroke-linecap:square;stroke-width:1.5;"/>
   </g>
  </g>
 </g>
 <defs>
  <clipPath id="peb52cc914b">
   <rect height="266.112" width="266.112" x="103.104" y="41.472"/>
  </clipPath>
 </defs>
</svg>
