<svg version="1.1" viewBox="0.0 0.0 150.1548556430446 105.87926509186352" fill="none" stroke="none" stroke-linecap="square" stroke-miterlimit="10" xmlns:xlink="http://www.w3.org/1999/xlink" xmlns="http://www.w3.org/2000/svg"><clipPath id="p.0"><path d="m0 0l150.15486 0l0 105.879265l-150.15486 0l0 -105.879265z" clip-rule="nonzero"/></clipPath><g clip-path="url(#p.0)"><path fill="#000000" fill-opacity="0.0" d="m0 0l150.15486 0l0 105.879265l-150.15486 0z" fill-rule="evenodd"/><defs><linearGradient id="p.1" gradientUnits="userSpaceOnUse" gradientTransform="matrix(10.239674524253818 0.0 0.0 10.239674524253818 0.0 0.0)" spreadMethod="pad" x1="1.9113772936558129E-10" y1="-5.280062144117139E-5" x2="-3.706732776186125E-5" y2="10.239621723565284"><stop offset="0.0" stop-color="#1077d2"/><stop offset="1.0" stop-color="#093153"/></linearGradient></defs><path fill="url(#p.1)" d="m0 0l149.35432 0l0 104.850395l-149.35432 0z" fill-rule="evenodd"/><path stroke="#000000" stroke-width="1.0" stroke-linejoin="round" stroke-linecap="butt" d="m0 0l149.35432 0l0 104.850395l-149.35432 0z" fill-rule="evenodd"/><defs><radialGradient id="p.2" gradientUnits="userSpaceOnUse" gradientTransform="matrix(8.618049188626467 0.0 0.0 8.618049188626467 0.0 0.0)" spreadMethod="pad" cx="8.661819663900815" cy="11.23080743683491" fx="8.661819663900815" fy="11.23080743683491" r="8.618049621582031"><stop offset="0.0" stop-color="#fff6db"/><stop offset="1.0" stop-color="#fad25c"/></radialGradient></defs><path fill="url(#p.2)" d="m0.7267281 89.5908l147.84251 0l0 14.393707l-147.84251 0z" fill-rule="evenodd"/><path stroke="#ffe599" stroke-width="1.0" stroke-linejoin="round" stroke-linecap="butt" d="m0.7267281 89.5908l147.84251 0l0 14.393707l-147.84251 0z" fill-rule="evenodd"/><path fill="#000000" fill-opacity="0.0" d="m118.614174 92.40157c0 -6.5118103 -1.8897629 -9.767715 -3.7795258 -13.023621c-1.8897629 -3.2559052 -3.7795334 -6.5118103 -3.7795334 -13.023621" fill-rule="evenodd"/><path stroke="#38761d" stroke-width="1.0" stroke-linejoin="round" stroke-linecap="butt" d="m118.614174 92.40157c0 -6.5118103 -1.8897629 -9.767715 -3.7795258 -13.023621c-1.8897629 -3.2559052 -3.7795334 -6.5118103 -3.7795334 -13.023621" fill-rule="evenodd"/><path fill="#000000" fill-opacity="0.0" d="m119.64982 60.27034c0 3.5905533 -1.7401581 5.385826 -3.4803162 7.1811066c-1.7401581 1.7952728 -3.4803162 3.5905457 -3.4803162 7.181099" fill-rule="evenodd"/><path stroke="#38761d" stroke-width="1.0" stroke-linejoin="round" stroke-linecap="butt" d="m119.64982 60.27034c0 3.5905533 -1.7401581 5.385826 -3.4803162 7.1811066c-1.7401581 1.7952728 -3.4803162 3.5905457 -3.4803162 7.181099" fill-rule="evenodd"/><path fill="#000000" fill-opacity="0.0" d="m131.64305 91.81102c0 -6.1102295 1.669281 -9.165352 3.3385773 -12.220467c1.6692963 -3.0551224 3.3385773 -6.110237 3.3385773 -12.220474" fill-rule="evenodd"/><path stroke="#38761d" stroke-width="1.0" stroke-linejoin="round" stroke-linecap="butt" d="m131.64305 91.81102c0 -6.1102295 1.669281 -9.165352 3.3385773 -12.220467c1.6692963 -3.0551224 3.3385773 -6.110237 3.3385773 -12.220474" fill-rule="evenodd"/><path fill="#000000" fill-opacity="0.0" d="m136.38321 77.002625c0 -3.740158 -2.3700867 -5.610237 -4.740158 -7.480316c-2.3700867 -1.870079 -4.7401657 -3.740158 -4.7401657 -7.4803123" fill-rule="evenodd"/><path stroke="#38761d" stroke-width="1.0" stroke-linejoin="round" stroke-linecap="butt" d="m136.38321 77.002625c0 -3.740158 -2.3700867 -5.610237 -4.740158 -7.480316c-2.3700867 -1.870079 -4.7401657 -3.740158 -4.7401657 -7.4803123" fill-rule="evenodd"/><path fill="#000000" fill-opacity="0.0" d="m115.79875 80.40682c0 -2.2204742 0.9606323 -3.3307037 1.921257 -4.440941c0.9606323 -1.1102371 1.9212646 -2.2204742 1.9212646 -4.4409485" fill-rule="evenodd"/><path stroke="#38761d" stroke-width="1.0" stroke-linejoin="round" stroke-linecap="butt" d="m115.79875 80.40682c0 -2.2204742 0.9606323 -3.3307037 1.921257 -4.440941c0.9606323 -1.1102371 1.9212646 -2.2204742 1.9212646 -4.4409485" fill-rule="evenodd"/><path fill="#000000" fill-opacity="0.0" d="m127.49869 73.29921c0 2.4803162 1.4803162 3.7204742 2.9606323 4.9606323c1.4803162 1.2401581 2.9606323 2.4803162 2.9606323 4.9606323" fill-rule="evenodd"/><path stroke="#38761d" stroke-width="1.0" stroke-linejoin="round" stroke-linecap="butt" d="m127.49869 73.29921c0 2.4803162 1.4803162 3.7204742 2.9606323 4.9606323c1.4803162 1.2401581 2.9606323 2.4803162 2.9606323 4.9606323" fill-rule="evenodd"/><path fill="#000000" fill-opacity="0.0" d="m104.9895 91.21785c0 -9.3622055 -2.4409485 -14.043312 -4.8818893 -18.724411c-2.4409485 -4.6811066 -4.8818893 -9.3622055 -4.8818893 -18.724411" fill-rule="evenodd"/><path stroke="#38761d" stroke-width="1.0" stroke-linejoin="round" stroke-linecap="butt" d="m104.9895 91.21785c0 -9.3622055 -2.4409485 -14.043312 -4.8818893 -18.724411c-2.4409485 -4.6811066 -4.8818893 -9.3622055 -4.8818893 -18.724411" fill-rule="evenodd"/><path fill="#000000" fill-opacity="0.0" d="m99.80577 71.37533c0 -2.81102 1.5196915 -4.2165375 3.0393753 -5.6220474c1.5196838 -1.40551 3.0393677 -2.8110237 3.0393677 -5.6220474" fill-rule="evenodd"/><path stroke="#38761d" stroke-width="1.0" stroke-linejoin="round" stroke-linecap="butt" d="m99.80577 71.37533c0 -2.81102 1.5196915 -4.2165375 3.0393753 -5.6220474c1.5196838 -1.40551 3.0393677 -2.8110237 3.0393677 -5.6220474" fill-rule="evenodd"/><path fill="#000000" fill-opacity="0.0" d="m102.91601 79.07612c0 -2.0 0.9606323 -3.0 1.9212646 -4.0c0.9606247 -1.0 1.921257 -2.0 1.921257 -4.0" fill-rule="evenodd"/><path stroke="#38761d" stroke-width="1.0" stroke-linejoin="round" stroke-linecap="butt" d="m102.91601 79.07612c0 -2.0 0.9606323 -3.0 1.9212646 -4.0c0.9606247 -1.0 1.921257 -2.0 1.921257 -4.0" fill-rule="evenodd"/></g></svg>